<svg class="rich-terminal" viewBox="0 0 1482 1026.0" xmlns="http://www.w3.org/2000/svg">
    <!-- Generated with Rich https://www.textualize.io -->
    <style>

    @font-face {
        font-family: "Fira Code";
        src: local("FiraCode-Regular"),
                url("https://cdnjs.cloudflare.com/ajax/libs/firacode/6.2.0/woff2/FiraCode-Regular.woff2") format("woff2"),
                url("https://cdnjs.cloudflare.com/ajax/libs/firacode/6.2.0/woff/FiraCode-Regular.woff") format("woff");
        font-style: normal;
        font-weight: 400;
    }
    @font-face {
        font-family: "Fira Code";
        src: local("FiraCode-Bold"),
                url("https://cdnjs.cloudflare.com/ajax/libs/firacode/6.2.0/woff2/FiraCode-Bold.woff2") format("woff2"),
                url("https://cdnjs.cloudflare.com/ajax/libs/firacode/6.2.0/woff/FiraCode-Bold.woff") format("woff");
        font-style: bold;
        font-weight: 700;
    }

    .terminal-2553881120-matrix {
        font-family: Fira Code, monospace;
        font-size: 20px;
        line-height: 24.4px;
        font-variant-east-asian: full-width;
    }

    .terminal-2553881120-title {
        font-size: 18px;
        font-weight: bold;
        font-family: arial;
    }

    .terminal-2553881120-r1 { fill: #565f89 }
.terminal-2553881120-r2 { fill: #c5c8c6 }
.terminal-2553881120-r3 { fill: #ffffff }
.terminal-2553881120-r4 { fill: #e0e0e0;font-weight: bold }
.terminal-2553881120-r5 { fill: #6db2ff }
.terminal-2553881120-r6 { fill: #ddedf9;font-weight: bold }
.terminal-2553881120-r7 { fill: #004295 }
    </style>

    <defs>
    <clipPath id="terminal-2553881120-clip-terminal">
      <rect x="0" y="0" width="1463.0" height="975.0" />
    </clipPath>
    <clipPath id="terminal-2553881120-line-0">
    <rect x="0" y="1.5" width="1464" height="24.65"/>
            </clipPath>
<clipPath id="terminal-2553881120-line-1">
    <rect x="0" y="25.9" width="1464" height="24.65"/>
            </clipPath>
<clipPath id="terminal-2553881120-line-2">
    <rect x="0" y="50.3" width="1464" height="24.65"/>
            </clipPath>
<clipPath id="terminal-2553881120-line-3">
    <rect x="0" y="74.7" width="1464" height="24.65"/>
            </clipPath>
<clipPath id="terminal-2553881120-line-4">
    <rect x="0" y="99.1" width="1464" height="24.65"/>
            </clipPath>
<clipPath id="terminal-2553881120-line-5">
    <rect x="0" y="123.5" width="1464" height="24.65"/>
            </clipPath>
<clipPath id="terminal-2553881120-line-6">
    <rect x="0" y="147.9" width="1464" height="24.65"/>
            </clipPath>
<clipPath id="terminal-2553881120-line-7">
    <rect x="0" y="172.3" width="1464" height="24.65"/>
            </clipPath>
<clipPath id="terminal-2553881120-line-8">
    <rect x="0" y="196.7" width="1464" height="24.65"/>
            </clipPath>
<clipPath id="terminal-2553881120-line-9">
    <rect x="0" y="221.1" width="1464" height="24.65"/>
            </clipPath>
<clipPath id="terminal-2553881120-line-10">
    <rect x="0" y="245.5" width="1464" height="24.65"/>
            </clipPath>
<clipPath id="terminal-2553881120-line-11">
    <rect x="0" y="269.9" width="1464" height="24.65"/>
            </clipPath>
<clipPath id="terminal-2553881120-line-12">
    <rect x="0" y="294.3" width="1464" height="24.65"/>
            </clipPath>
<clipPath id="terminal-2553881120-line-13">
    <rect x="0" y="318.7" width="1464" height="24.65"/>
            </clipPath>
<clipPath id="terminal-2553881120-line-14">
    <rect x="0" y="343.1" width="1464" height="24.65"/>
            </clipPath>
<clipPath id="terminal-2553881120-line-15">
    <rect x="0" y="367.5" width="1464" height="24.65"/>
            </clipPath>
<clipPath id="terminal-2553881120-line-16">
    <rect x="0" y="391.9" width="1464" height="24.65"/>
            </clipPath>
<clipPath id="terminal-2553881120-line-17">
    <rect x="0" y="416.3" width="1464" height="24.65"/>
            </clipPath>
<clipPath id="terminal-2553881120-line-18">
    <rect x="0" y="440.7" width="1464" height="24.65"/>
            </clipPath>
<clipPath id="terminal-2553881120-line-19">
    <rect x="0" y="465.1" width="1464" height="24.65"/>
            </clipPath>
<clipPath id="terminal-2553881120-line-20">
    <rect x="0" y="489.5" width="1464" height="24.65"/>
            </clipPath>
<clipPath id="terminal-2553881120-line-21">
    <rect x="0" y="513.9" width="1464" height="24.65"/>
            </clipPath>
<clipPath id="terminal-2553881120-line-22">
    <rect x="0" y="538.3" width="1464" height="24.65"/>
            </clipPath>
<clipPath id="terminal-2553881120-line-23">
    <rect x="0" y="562.7" width="1464" height="24.65"/>
            </clipPath>
<clipPath id="terminal-2553881120-line-24">
    <rect x="0" y="587.1" width="1464" height="24.65"/>
            </clipPath>
<clipPath id="terminal-2553881120-line-25">
    <rect x="0" y="611.5" width="1464" height="24.65"/>
            </clipPath>
<clipPath id="terminal-2553881120-line-26">
    <rect x="0" y="635.9" width="1464" height="24.65"/>
            </clipPath>
<clipPath id="terminal-2553881120-line-27">
    <rect x="0" y="660.3" width="1464" height="24.65"/>
            </clipPath>
<clipPath id="terminal-2553881120-line-28">
    <rect x="0" y="684.7" width="1464" height="24.65"/>
            </clipPath>
<clipPath id="terminal-2553881120-line-29">
    <rect x="0" y="709.1" width="1464" height="24.65"/>
            </clipPath>
<clipPath id="terminal-2553881120-line-30">
    <rect x="0" y="733.5" width="1464" height="24.65"/>
            </clipPath>
<clipPath id="terminal-2553881120-line-31">
    <rect x="0" y="757.9" width="1464" height="24.65"/>
            </clipPath>
<clipPath id="terminal-2553881120-line-32">
    <rect x="0" y="782.3" width="1464" height="24.65"/>
            </clipPath>
<clipPath id="terminal-2553881120-line-33">
    <rect x="0" y="806.7" width="1464" height="24.65"/>
            </clipPath>
<clipPath id="terminal-2553881120-line-34">
    <rect x="0" y="831.1" width="1464" height="24.65"/>
            </clipPath>
<clipPath id="terminal-2553881120-line-35">
    <rect x="0" y="855.5" width="1464" height="24.65"/>
            </clipPath>
<clipPath id="terminal-2553881120-line-36">
    <rect x="0" y="879.9" width="1464" height="24.65"/>
            </clipPath>
<clipPath id="terminal-2553881120-line-37">
    <rect x="0" y="904.3" width="1464" height="24.65"/>
            </clipPath>
<clipPath id="terminal-2553881120-line-38">
    <rect x="0" y="928.7" width="1464" height="24.65"/>
            </clipPath>
    </defs>

    <rect fill="#292929" stroke="rgba(255,255,255,0.35)" stroke-width="1" x="1" y="1" width="1480" height="1024" rx="8"/><text class="terminal-2553881120-title" fill="#c5c8c6" text-anchor="middle" x="740" y="27">Ectop</text>
            <g transform="translate(26,22)">
            <circle cx="0" cy="0" r="7" fill="#ff5f57"/>
            <circle cx="22" cy="0" r="7" fill="#febc2e"/>
            <circle cx="44" cy="0" r="7" fill="#28c840"/>
            </g>

    <g transform="translate(9, 41)" clip-path="url(#terminal-2553881120-clip-terminal)">
    <rect fill="#1a1b26" x="0" y="1.5" width="12.2" height="24.65" shape-rendering="crispEdges"/><rect fill="#1a1b26" x="12.2" y="1.5" width="1146.8" height="24.65" shape-rendering="crispEdges"/><rect fill="#1a1b26" x="1159" y="1.5" width="12.2" height="24.65" shape-rendering="crispEdges"/><rect fill="#1a1b26" x="1171.2" y="1.5" width="292.8" height="24.65" shape-rendering="crispEdges"/><rect fill="#1a1b26" x="0" y="25.9" width="12.2" height="24.65" shape-rendering="crispEdges"/><rect fill="#1a1b26" x="12.2" y="25.9" width="1146.8" height="24.65" shape-rendering="crispEdges"/><rect fill="#1a1b26" x="1159" y="25.9" width="12.2" height="24.65" shape-rendering="crispEdges"/><rect fill="#1a1b26" x="1171.2" y="25.9" width="292.8" height="24.65" shape-rendering="crispEdges"/><rect fill="#1a1b26" x="0" y="50.3" width="12.2" height="24.65" shape-rendering="crispEdges"/><rect fill="#1a1b26" x="12.2" y="50.3" width="24.4" height="24.65" shape-rendering="crispEdges"/><rect fill="#565f89" x="36.6" y="50.3" width="256.2" height="24.65" shape-rendering="crispEdges"/><rect fill="#565f89" x="292.8" y="50.3" width="573.4" height="24.65" shape-rendering="crispEdges"/><rect fill="#565f89" x="866.2" y="50.3" width="268.4" height="24.65" shape-rendering="crispEdges"/><rect fill="#1a1b26" x="1134.6" y="50.3" width="24.4" height="24.65" shape-rendering="crispEdges"/><rect fill="#1a1b26" x="1159" y="50.3" width="12.2" height="24.65" shape-rendering="crispEdges"/><rect fill="#1a1b26" x="1171.2" y="50.3" width="292.8" height="24.65" shape-rendering="crispEdges"/><rect fill="#1a1b26" x="0" y="74.7" width="12.2" height="24.65" shape-rendering="crispEdges"/><rect fill="#1a1b26" x="12.2" y="74.7" width="24.4" height="24.65" shape-rendering="crispEdges"/><rect fill="#1a1b26" x="36.6" y="74.7" width="1098" height="24.65" shape-rendering="crispEdges"/><rect fill="#1a1b26" x="1134.6" y="74.7" width="24.4" height="24.65" shape-rendering="crispEdges"/><rect fill="#1a1b26" x="1159" y="74.7" width="12.2" height="24.65" shape-rendering="crispEdges"/><rect fill="#1a1b26" x="1171.2" y="74.7" width="292.8" height="24.65" shape-rendering="crispEdges"/><rect fill="#1a1b26" x="0" y="99.1" width="12.2" height="24.65" shape-rendering="crispEdges"/><rect fill="#1a1b26" x="12.2" y="99.1" width="24.4" height="24.65" shape-rendering="crispEdges"/><rect fill="#2d3740" x="36.6" y="99.1" width="73.2" height="24.65" shape-rendering="crispEdges"/><rect fill="#2d3740" x="109.8" y="99.1" width="85.4" height="24.65" shape-rendering="crispEdges"/><rect fill="#2d3740" x="195.2" y="99.1" width="73.2" height="24.65" shape-rendering="crispEdges"/><rect fill="#2d3740" x="268.4" y="99.1" width="866.2" height="24.65" shape-rendering="crispEdges"/><rect fill="#1a1b26" x="1134.6" y="99.1" width="24.4" height="24.65" shape-rendering="crispEdges"/><rect fill="#1a1b26" x="1159" y="99.1" width="12.2" height="24.65" shape-rendering="crispEdges"/><rect fill="#1a1b26" x="1171.2" y="99.1" width="292.8" height="24.65" shape-rendering="crispEdges"/><rect fill="#1a1b26" x="0" y="123.5" width="12.2" height="24.65" shape-rendering="crispEdges"/><rect fill="#1a1b26" x="12.2" y="123.5" width="24.4" height="24.65" shape-rendering="crispEdges"/><rect fill="#0178d4" x="36.6" y="123.5" width="195.2" height="24.65" shape-rendering="crispEdges"/><rect fill="#1a1b26" x="231.8" y="123.5" width="902.8" height="24.65" shape-rendering="crispEdges"/><rect fill="#1a1b26" x="1134.6" y="123.5" width="24.4" height="24.65" shape-rendering="crispEdges"/><rect fill="#1a1b26" x="1159" y="123.5" width="12.2" height="24.65" shape-rendering="crispEdges"/><rect fill="#1a1b26" x="1171.2" y="123.5" width="292.8" height="24.65" shape-rendering="crispEdges"/><rect fill="#1a1b26" x="0" y="147.9" width="12.2" height="24.65" shape-rendering="crispEdges"/><rect fill="#1a1b26" x="12.2" y="147.9" width="24.4" height="24.65" shape-rendering="crispEdges"/><rect fill="#0178d4" x="36.6" y="147.9" width="48.8" height="24.65" shape-rendering="crispEdges"/><rect fill="#0178d4" x="85.4" y="147.9" width="85.4" height="24.65" shape-rendering="crispEdges"/><rect fill="#0178d4" x="170.8" y="147.9" width="61" height="24.65" shape-rendering="crispEdges"/><rect fill="#1a1b26" x="231.8" y="147.9" width="902.8" height="24.65" shape-rendering="crispEdges"/><rect fill="#1a1b26" x="1134.6" y="147.9" width="24.4" height="24.65" shape-rendering="crispEdges"/><rect fill="#1a1b26" x="1159" y="147.9" width="12.2" height="24.65" shape-rendering="crispEdges"/><rect fill="#1a1b26" x="1171.2" y="147.9" width="292.8" height="24.65" shape-rendering="crispEdges"/><rect fill="#1a1b26" x="0" y="172.3" width="12.2" height="24.65" shape-rendering="crispEdges"/><rect fill="#1a1b26" x="12.2" y="172.3" width="24.4" height="24.65" shape-rendering="crispEdges"/><rect fill="#0178d4" x="36.6" y="172.3" width="195.2" height="24.65" shape-rendering="crispEdges"/><rect fill="#1a1b26" x="231.8" y="172.3" width="902.8" height="24.65" shape-rendering="crispEdges"/><rect fill="#1a1b26" x="1134.6" y="172.3" width="24.4" height="24.65" shape-rendering="crispEdges"/><rect fill="#1a1b26" x="1159" y="172.3" width="12.2" height="24.65" shape-rendering="crispEdges"/><rect fill="#1a1b26" x="1171.2" y="172.3" width="292.8" height="24.65" shape-rendering="crispEdges"/><rect fill="#1a1b26" x="0" y="196.7" width="12.2" height="24.65" shape-rendering="crispEdges"/><rect fill="#1a1b26" x="12.2" y="196.7" width="24.4" height="24.65" shape-rendering="crispEdges"/><rect fill="#1a1b26" x="36.6" y="196.7" width="1098" height="24.65" shape-rendering="crispEdges"/><rect fill="#1a1b26" x="1134.6" y="196.7" width="24.4" height="24.65" shape-rendering="crispEdges"/><rect fill="#1a1b26" x="1159" y="196.7" width="12.2" height="24.65" shape-rendering="crispEdges"/><rect fill="#1a1b26" x="1171.2" y="196.7" width="292.8" height="24.65" shape-rendering="crispEdges"/><rect fill="#1a1b26" x="0" y="221.1" width="12.2" height="24.65" shape-rendering="crispEdges"/><rect fill="#1a1b26" x="12.2" y="221.1" width="24.4" height="24.65" shape-rendering="crispEdges"/><rect fill="#1a1b26" x="36.6" y="221.1" width="1098" height="24.65" shape-rendering="crispEdges"/><rect fill="#1a1b26" x="1134.6" y="221.1" width="24.4" height="24.65" shape-rendering="crispEdges"/><rect fill="#1a1b26" x="1159" y="221.1" width="12.2" height="24.65" shape-rendering="crispEdges"/><rect fill="#1a1b26" x="1171.2" y="221.1" width="292.8" height="24.65" shape-rendering="crispEdges"/><rect fill="#1a1b26" x="0" y="245.5" width="12.2" height="24.65" shape-rendering="crispEdges"/><rect fill="#1a1b26" x="12.2" y="245.5" width="24.4" height="24.65" shape-rendering="crispEdges"/><rect fill="#1a1b26" x="36.6" y="245.5" width="1098" height="24.65" shape-rendering="crispEdges"/><rect fill="#1a1b26" x="1134.6" y="245.5" width="24.4" height="24.65" shape-rendering="crispEdges"/><rect fill="#1a1b26" x="1159" y="245.5" width="12.2" height="24.65" shape-rendering="crispEdges"/><rect fill="#1a1b26" x="1171.2" y="245.5" width="292.8" height="24.65" shape-rendering="crispEdges"/><rect fill="#1a1b26" x="0" y="269.9" width="12.2" height="24.65" shape-rendering="crispEdges"/><rect fill="#1a1b26" x="12.2" y="269.9" width="24.4" height="24.65" shape-rendering="crispEdges"/><rect fill="#1a1b26" x="36.6" y="269.9" width="1098" height="24.65" shape-rendering="crispEdges"/><rect fill="#1a1b26" x="1134.6" y="269.9" width="24.4" height="24.65" shape-rendering="crispEdges"/><rect fill="#1a1b26" x="1159" y="269.9" width="12.2" height="24.65" shape-rendering="crispEdges"/><rect fill="#1a1b26" x="1171.2" y="269.9" width="292.8" height="24.65" shape-rendering="crispEdges"/><rect fill="#1a1b26" x="0" y="294.3" width="12.2" height="24.65" shape-rendering="crispEdges"/><rect fill="#1a1b26" x="12.2" y="294.3" width="24.4" height="24.65" shape-rendering="crispEdges"/><rect fill="#1a1b26" x="36.6" y="294.3" width="1098" height="24.65" shape-rendering="crispEdges"/><rect fill="#1a1b26" x="1134.6" y="294.3" width="24.4" height="24.65" shape-rendering="crispEdges"/><rect fill="#1a1b26" x="1159" y="294.3" width="12.2" height="24.65" shape-rendering="crispEdges"/><rect fill="#1a1b26" x="1171.2" y="294.3" width="292.8" height="24.65" shape-rendering="crispEdges"/><rect fill="#1a1b26" x="0" y="318.7" width="12.2" height="24.65" shape-rendering="crispEdges"/><rect fill="#1a1b26" x="12.2" y="318.7" width="24.4" height="24.65" shape-rendering="crispEdges"/><rect fill="#1a1b26" x="36.6" y="318.7" width="1098" height="24.65" shape-rendering="crispEdges"/><rect fill="#1a1b26" x="1134.6" y="318.7" width="24.4" height="24.65" shape-rendering="crispEdges"/><rect fill="#1a1b26" x="1159" y="318.7" width="12.2" height="24.65" shape-rendering="crispEdges"/><rect fill="#1a1b26" x="1171.2" y="318.7" width="292.8" height="24.65" shape-rendering="crispEdges"/><rect fill="#1a1b26" x="0" y="343.1" width="12.2" height="24.65" shape-rendering="crispEdges"/><rect fill="#1a1b26" x="12.2" y="343.1" width="24.4" height="24.65" shape-rendering="crispEdges"/><rect fill="#1a1b26" x="36.6" y="343.1" width="1098" height="24.65" shape-rendering="crispEdges"/><rect fill="#1a1b26" x="1134.6" y="343.1" width="24.4" height="24.65" shape-rendering="crispEdges"/><rect fill="#1a1b26" x="1159" y="343.1" width="12.2" height="24.65" shape-rendering="crispEdges"/><rect fill="#1a1b26" x="1171.2" y="343.1" width="292.8" height="24.65" shape-rendering="crispEdges"/><rect fill="#1a1b26" x="0" y="367.5" width="12.2" height="24.65" shape-rendering="crispEdges"/><rect fill="#1a1b26" x="12.2" y="367.5" width="24.4" height="24.65" shape-rendering="crispEdges"/><rect fill="#1a1b26" x="36.6" y="367.5" width="1098" height="24.65" shape-rendering="crispEdges"/><rect fill="#1a1b26" x="1134.6" y="367.5" width="24.4" height="24.65" shape-rendering="crispEdges"/><rect fill="#1a1b26" x="1159" y="367.5" width="12.2" height="24.65" shape-rendering="crispEdges"/><rect fill="#1a1b26" x="1171.2" y="367.5" width="292.8" height="24.65" shape-rendering="crispEdges"/><rect fill="#1a1b26" x="0" y="391.9" width="12.2" height="24.65" shape-rendering="crispEdges"/><rect fill="#1a1b26" x="12.2" y="391.9" width="24.4" height="24.65" shape-rendering="crispEdges"/><rect fill="#1a1b26" x="36.6" y="391.9" width="1098" height="24.65" shape-rendering="crispEdges"/><rect fill="#1a1b26" x="1134.6" y="391.9" width="24.4" height="24.65" shape-rendering="crispEdges"/><rect fill="#1a1b26" x="1159" y="391.9" width="12.2" height="24.65" shape-rendering="crispEdges"/><rect fill="#1a1b26" x="1171.2" y="391.9" width="292.8" height="24.65" shape-rendering="crispEdges"/><rect fill="#1a1b26" x="0" y="416.3" width="12.2" height="24.65" shape-rendering="crispEdges"/><rect fill="#1a1b26" x="12.2" y="416.3" width="24.4" height="24.65" shape-rendering="crispEdges"/><rect fill="#1a1b26" x="36.6" y="416.3" width="1098" height="24.65" shape-rendering="crispEdges"/><rect fill="#1a1b26" x="1134.6" y="416.3" width="24.4" height="24.65" shape-rendering="crispEdges"/><rect fill="#1a1b26" x="1159" y="416.3" width="12.2" height="24.65" shape-rendering="crispEdges"/><rect fill="#1a1b26" x="1171.2" y="416.3" width="292.8" height="24.65" shape-rendering="crispEdges"/><rect fill="#1a1b26" x="0" y="440.7" width="12.2" height="24.65" shape-rendering="crispEdges"/><rect fill="#1a1b26" x="12.2" y="440.7" width="24.4" height="24.65" shape-rendering="crispEdges"/><rect fill="#1a1b26" x="36.6" y="440.7" width="1098" height="24.65" shape-rendering="crispEdges"/><rect fill="#1a1b26" x="1134.6" y="440.7" width="24.4" height="24.65" shape-rendering="crispEdges"/><rect fill="#1a1b26" x="1159" y="440.7" width="12.2" height="24.65" shape-rendering="crispEdges"/><rect fill="#1a1b26" x="1171.2" y="440.7" width="292.8" height="24.65" shape-rendering="crispEdges"/><rect fill="#1a1b26" x="0" y="465.1" width="12.2" height="24.65" shape-rendering="crispEdges"/><rect fill="#1a1b26" x="12.2" y="465.1" width="24.4" height="24.65" shape-rendering="crispEdges"/><rect fill="#1a1b26" x="36.6" y="465.1" width="1098" height="24.65" shape-rendering="crispEdges"/><rect fill="#1a1b26" x="1134.6" y="465.1" width="24.4" height="24.65" shape-rendering="crispEdges"/><rect fill="#1a1b26" x="1159" y="465.1" width="12.2" height="24.65" shape-rendering="crispEdges"/><rect fill="#1a1b26" x="1171.2" y="465.1" width="292.8" height="24.65" shape-rendering="crispEdges"/><rect fill="#1a1b26" x="0" y="489.5" width="12.2" height="24.65" shape-rendering="crispEdges"/><rect fill="#1a1b26" x="12.2" y="489.5" width="24.4" height="24.65" shape-rendering="crispEdges"/><rect fill="#1a1b26" x="36.6" y="489.5" width="1098" height="24.65" shape-rendering="crispEdges"/><rect fill="#1a1b26" x="1134.6" y="489.5" width="24.4" height="24.65" shape-rendering="crispEdges"/><rect fill="#1a1b26" x="1159" y="489.5" width="12.2" height="24.65" shape-rendering="crispEdges"/><rect fill="#1a1b26" x="1171.2" y="489.5" width="292.8" height="24.65" shape-rendering="crispEdges"/><rect fill="#1a1b26" x="0" y="513.9" width="12.2" height="24.65" shape-rendering="crispEdges"/><rect fill="#1a1b26" x="12.2" y="513.9" width="24.4" height="24.65" shape-rendering="crispEdges"/><rect fill="#1a1b26" x="36.6" y="513.9" width="1098" height="24.65" shape-rendering="crispEdges"/><rect fill="#1a1b26" x="1134.6" y="513.9" width="24.4" height="24.65" shape-rendering="crispEdges"/><rect fill="#1a1b26" x="1159" y="513.9" width="12.2" height="24.65" shape-rendering="crispEdges"/><rect fill="#1a1b26" x="1171.2" y="513.9" width="292.8" height="24.65" shape-rendering="crispEdges"/><rect fill="#1a1b26" x="0" y="538.3" width="12.2" height="24.65" shape-rendering="crispEdges"/><rect fill="#1a1b26" x="12.2" y="538.3" width="24.4" height="24.65" shape-rendering="crispEdges"/><rect fill="#1a1b26" x="36.6" y="538.3" width="1098" height="24.65" shape-rendering="crispEdges"/><rect fill="#1a1b26" x="1134.6" y="538.3" width="24.4" height="24.65" shape-rendering="crispEdges"/><rect fill="#1a1b26" x="1159" y="538.3" width="12.2" height="24.65" shape-rendering="crispEdges"/><rect fill="#1a1b26" x="1171.2" y="538.3" width="292.8" height="24.65" shape-rendering="crispEdges"/><rect fill="#1a1b26" x="0" y="562.7" width="12.2" height="24.65" shape-rendering="crispEdges"/><rect fill="#1a1b26" x="12.2" y="562.7" width="24.4" height="24.65" shape-rendering="crispEdges"/><rect fill="#1a1b26" x="36.6" y="562.7" width="1098" height="24.65" shape-rendering="crispEdges"/><rect fill="#1a1b26" x="1134.6" y="562.7" width="24.4" height="24.65" shape-rendering="crispEdges"/><rect fill="#1a1b26" x="1159" y="562.7" width="12.2" height="24.65" shape-rendering="crispEdges"/><rect fill="#1a1b26" x="1171.2" y="562.7" width="292.8" height="24.65" shape-rendering="crispEdges"/><rect fill="#1a1b26" x="0" y="587.1" width="12.2" height="24.65" shape-rendering="crispEdges"/><rect fill="#1a1b26" x="12.2" y="587.1" width="24.4" height="24.65" shape-rendering="crispEdges"/><rect fill="#1a1b26" x="36.6" y="587.1" width="1098" height="24.65" shape-rendering="crispEdges"/><rect fill="#1a1b26" x="1134.6" y="587.1" width="24.4" height="24.65" shape-rendering="crispEdges"/><rect fill="#1a1b26" x="1159" y="587.1" width="12.2" height="24.65" shape-rendering="crispEdges"/><rect fill="#1a1b26" x="1171.2" y="587.1" width="292.8" height="24.65" shape-rendering="crispEdges"/><rect fill="#1a1b26" x="0" y="611.5" width="12.2" height="24.65" shape-rendering="crispEdges"/><rect fill="#1a1b26" x="12.2" y="611.5" width="24.4" height="24.65" shape-rendering="crispEdges"/><rect fill="#1a1b26" x="36.6" y="611.5" width="1098" height="24.65" shape-rendering="crispEdges"/><rect fill="#1a1b26" x="1134.6" y="611.5" width="24.4" height="24.65" shape-rendering="crispEdges"/><rect fill="#1a1b26" x="1159" y="611.5" width="12.2" height="24.65" shape-rendering="crispEdges"/><rect fill="#1a1b26" x="1171.2" y="611.5" width="292.8" height="24.65" shape-rendering="crispEdges"/><rect fill="#1a1b26" x="0" y="635.9" width="12.2" height="24.65" shape-rendering="crispEdges"/><rect fill="#1a1b26" x="12.2" y="635.9" width="24.4" height="24.65" shape-rendering="crispEdges"/><rect fill="#1a1b26" x="36.6" y="635.9" width="1098" height="24.65" shape-rendering="crispEdges"/><rect fill="#1a1b26" x="1134.6" y="635.9" width="24.4" height="24.65" shape-rendering="crispEdges"/><rect fill="#1a1b26" x="1159" y="635.9" width="12.2" height="24.65" shape-rendering="crispEdges"/><rect fill="#1a1b26" x="1171.2" y="635.9" width="292.8" height="24.65" shape-rendering="crispEdges"/><rect fill="#1a1b26" x="0" y="660.3" width="12.2" height="24.65" shape-rendering="crispEdges"/><rect fill="#1a1b26" x="12.2" y="660.3" width="24.4" height="24.65" shape-rendering="crispEdges"/><rect fill="#1a1b26" x="36.6" y="660.3" width="1098" height="24.65" shape-rendering="crispEdges"/><rect fill="#1a1b26" x="1134.6" y="660.3" width="24.4" height="24.65" shape-rendering="crispEdges"/><rect fill="#1a1b26" x="1159" y="660.3" width="12.2" height="24.65" shape-rendering="crispEdges"/><rect fill="#1a1b26" x="1171.2" y="660.3" width="292.8" height="24.65" shape-rendering="crispEdges"/><rect fill="#1a1b26" x="0" y="684.7" width="12.2" height="24.65" shape-rendering="crispEdges"/><rect fill="#1a1b26" x="12.2" y="684.7" width="24.4" height="24.65" shape-rendering="crispEdges"/><rect fill="#1a1b26" x="36.6" y="684.7" width="1098" height="24.65" shape-rendering="crispEdges"/><rect fill="#1a1b26" x="1134.6" y="684.7" width="24.4" height="24.65" shape-rendering="crispEdges"/><rect fill="#1a1b26" x="1159" y="684.7" width="12.2" height="24.65" shape-rendering="crispEdges"/><rect fill="#1a1b26" x="1171.2" y="684.7" width="292.8" height="24.65" shape-rendering="crispEdges"/><rect fill="#1a1b26" x="0" y="709.1" width="12.2" height="24.65" shape-rendering="crispEdges"/><rect fill="#1a1b26" x="12.2" y="709.1" width="24.4" height="24.65" shape-rendering="crispEdges"/><rect fill="#1a1b26" x="36.6" y="709.1" width="1098" height="24.65" shape-rendering="crispEdges"/><rect fill="#1a1b26" x="1134.6" y="709.1" width="24.4" height="24.65" shape-rendering="crispEdges"/><rect fill="#1a1b26" x="1159" y="709.1" width="12.2" height="24.65" shape-rendering="crispEdges"/><rect fill="#1a1b26" x="1171.2" y="709.1" width="292.8" height="24.65" shape-rendering="crispEdges"/><rect fill="#1a1b26" x="0" y="733.5" width="12.2" height="24.65" shape-rendering="crispEdges"/><rect fill="#1a1b26" x="12.2" y="733.5" width="1146.8" height="24.65" shape-rendering="crispEdges"/><rect fill="#1a1b26" x="1159" y="733.5" width="12.2" height="24.65" shape-rendering="crispEdges"/><rect fill="#1a1b26" x="1171.2" y="733.5" width="292.8" height="24.65" shape-rendering="crispEdges"/><rect fill="#1a1b26" x="0" y="757.9" width="12.2" height="24.65" shape-rendering="crispEdges"/><rect fill="#1a1b26" x="12.2" y="757.9" width="1146.8" height="24.65" shape-rendering="crispEdges"/><rect fill="#1a1b26" x="1159" y="757.9" width="12.2" height="24.65" shape-rendering="crispEdges"/><rect fill="#1a1b26" x="1171.2" y="757.9" width="292.8" height="24.65" shape-rendering="crispEdges"/><rect fill="#1a1b26" x="0" y="782.3" width="1464" height="24.65" shape-rendering="crispEdges"/><rect fill="#1a1b26" x="0" y="806.7" width="1464" height="24.65" shape-rendering="crispEdges"/><rect fill="#1a1b26" x="0" y="831.1" width="1464" height="24.65" shape-rendering="crispEdges"/><rect fill="#1a1b26" x="0" y="855.5" width="1464" height="24.65" shape-rendering="crispEdges"/><rect fill="#1a1b26" x="0" y="879.9" width="1464" height="24.65" shape-rendering="crispEdges"/><rect fill="#1a1b26" x="0" y="904.3" width="1464" height="24.65" shape-rendering="crispEdges"/><rect fill="#1a1b26" x="0" y="928.7" width="1464" height="24.65" shape-rendering="crispEdges"/><rect fill="#1a1b26" x="0" y="953.1" width="1464" height="24.65" shape-rendering="crispEdges"/>
    <g class="terminal-2553881120-matrix">
    <text class="terminal-2553881120-r1" x="0" y="20" textLength="12.2" clip-path="url(#terminal-2553881120-line-0)">█</text><text class="terminal-2553881120-r1" x="12.2" y="20" textLength="1146.8" clip-path="url(#terminal-2553881120-line-0)">▀▀▀▀▀▀▀▀▀▀▀▀▀▀▀▀▀▀▀▀▀▀▀▀▀▀▀▀▀▀▀▀▀▀▀▀▀▀▀▀▀▀▀▀▀▀▀▀▀▀▀▀▀▀▀▀▀▀▀▀▀▀▀▀▀▀▀▀▀▀▀▀▀▀▀▀▀▀▀▀▀▀▀▀▀▀▀▀▀▀▀▀▀▀</text><text class="terminal-2553881120-r1" x="1159" y="20" textLength="12.2" clip-path="url(#terminal-2553881120-line-0)">█</text><text class="terminal-2553881120-r2" x="1464" y="20" textLength="12.2" clip-path="url(#terminal-2553881120-line-0)">
</text><text class="terminal-2553881120-r1" x="0" y="44.4" textLength="12.2" clip-path="url(#terminal-2553881120-line-1)">█</text><text class="terminal-2553881120-r1" x="1159" y="44.4" textLength="12.2" clip-path="url(#terminal-2553881120-line-1)">█</text><text class="terminal-2553881120-r2" x="1464" y="44.4" textLength="12.2" clip-path="url(#terminal-2553881120-line-1)">
</text><text class="terminal-2553881120-r1" x="0" y="68.8" textLength="12.2" clip-path="url(#terminal-2553881120-line-2)">█</text><text class="terminal-2553881120-r3" x="292.8" y="68.8" textLength="573.4" clip-path="url(#terminal-2553881120-line-2)">Variables&#160;for&#160;/ectop_demo/operational/process_1</text><text class="terminal-2553881120-r1" x="1159" y="68.8" textLength="12.2" clip-path="url(#terminal-2553881120-line-2)">█</text><text class="terminal-2553881120-r2" x="1464" y="68.8" textLength="12.2" clip-path="url(#terminal-2553881120-line-2)">
</text><text class="terminal-2553881120-r1" x="0" y="93.2" textLength="12.2" clip-path="url(#terminal-2553881120-line-3)">█</text><text class="terminal-2553881120-r1" x="1159" y="93.2" textLength="12.2" clip-path="url(#terminal-2553881120-line-3)">█</text><text class="terminal-2553881120-r2" x="1464" y="93.2" textLength="12.2" clip-path="url(#terminal-2553881120-line-3)">
</text><text class="terminal-2553881120-r1" x="0" y="117.6" textLength="12.2" clip-path="url(#terminal-2553881120-line-4)">█</text><text class="terminal-2553881120-r4" x="36.6" y="117.6" textLength="73.2" clip-path="url(#terminal-2553881120-line-4)">&#160;Name&#160;</text><text class="terminal-2553881120-r4" x="109.8" y="117.6" textLength="85.4" clip-path="url(#terminal-2553881120-line-4)">&#160;Value&#160;</text><text class="terminal-2553881120-r4" x="195.2" y="117.6" textLength="73.2" clip-path="url(#terminal-2553881120-line-4)">&#160;Type&#160;</text><text class="terminal-2553881120-r1" x="1159" y="117.6" textLength="12.2" clip-path="url(#terminal-2553881120-line-4)">█</text><text class="terminal-2553881120-r2" x="1464" y="117.6" textLength="12.2" clip-path="url(#terminal-2553881120-line-4)">
</text><text class="terminal-2553881120-r1" x="0" y="142" textLength="12.2" clip-path="url(#terminal-2553881120-line-5)">█</text><text class="terminal-2553881120-r5" x="36.6" y="142" textLength="195.2" clip-path="url(#terminal-2553881120-line-5)">▔▔▔▔▔▔▔▔▔▔▔▔▔▔▔▔</text><text class="terminal-2553881120-r1" x="1159" y="142" textLength="12.2" clip-path="url(#terminal-2553881120-line-5)">█</text><text class="terminal-2553881120-r2" x="1464" y="142" textLength="12.2" clip-path="url(#terminal-2553881120-line-5)">
</text><text class="terminal-2553881120-r1" x="0" y="166.4" textLength="12.2" clip-path="url(#terminal-2553881120-line-6)">█</text><text class="terminal-2553881120-r6" x="85.4" y="166.4" textLength="85.4" clip-path="url(#terminal-2553881120-line-6)">&#160;Close&#160;</text><text class="terminal-2553881120-r1" x="1159" y="166.4" textLength="12.2" clip-path="url(#terminal-2553881120-line-6)">█</text><text class="terminal-2553881120-r2" x="1464" y="166.4" textLength="12.2" clip-path="url(#terminal-2553881120-line-6)">
</text><text class="terminal-2553881120-r1" x="0" y="190.8" textLength="12.2" clip-path="url(#terminal-2553881120-line-7)">█</text><text class="terminal-2553881120-r7" x="36.6" y="190.8" textLength="195.2" clip-path="url(#terminal-2553881120-line-7)">▁▁▁▁▁▁▁▁▁▁▁▁▁▁▁▁</text><text class="terminal-2553881120-r1" x="1159" y="190.8" textLength="12.2" clip-path="url(#terminal-2553881120-line-7)">█</text><text class="terminal-2553881120-r2" x="1464" y="190.8" textLength="12.2" clip-path="url(#terminal-2553881120-line-7)">
</text><text class="terminal-2553881120-r1" x="0" y="215.2" textLength="12.2" clip-path="url(#terminal-2553881120-line-8)">█</text><text class="terminal-2553881120-r1" x="1159" y="215.2" textLength="12.2" clip-path="url(#terminal-2553881120-line-8)">█</text><text class="terminal-2553881120-r2" x="1464" y="215.2" textLength="12.2" clip-path="url(#terminal-2553881120-line-8)">
</text><text class="terminal-2553881120-r1" x="0" y="239.6" textLength="12.2" clip-path="url(#terminal-2553881120-line-9)">█</text><text class="terminal-2553881120-r1" x="1159" y="239.6" textLength="12.2" clip-path="url(#terminal-2553881120-line-9)">█</text><text class="terminal-2553881120-r2" x="1464" y="239.6" textLength="12.2" clip-path="url(#terminal-2553881120-line-9)">
</text><text class="terminal-2553881120-r1" x="0" y="264" textLength="12.2" clip-path="url(#terminal-2553881120-line-10)">█</text><text class="terminal-2553881120-r1" x="1159" y="264" textLength="12.2" clip-path="url(#terminal-2553881120-line-10)">█</text><text class="terminal-2553881120-r2" x="1464" y="264" textLength="12.2" clip-path="url(#terminal-2553881120-line-10)">
</text><text class="terminal-2553881120-r1" x="0" y="288.4" textLength="12.2" clip-path="url(#terminal-2553881120-line-11)">█</text><text class="terminal-2553881120-r1" x="1159" y="288.4" textLength="12.2" clip-path="url(#terminal-2553881120-line-11)">█</text><text class="terminal-2553881120-r2" x="1464" y="288.4" textLength="12.2" clip-path="url(#terminal-2553881120-line-11)">
</text><text class="terminal-2553881120-r1" x="0" y="312.8" textLength="12.2" clip-path="url(#terminal-2553881120-line-12)">█</text><text class="terminal-2553881120-r1" x="1159" y="312.8" textLength="12.2" clip-path="url(#terminal-2553881120-line-12)">█</text><text class="terminal-2553881120-r2" x="1464" y="312.8" textLength="12.2" clip-path="url(#terminal-2553881120-line-12)">
</text><text class="terminal-2553881120-r1" x="0" y="337.2" textLength="12.2" clip-path="url(#terminal-2553881120-line-13)">█</text><text class="terminal-2553881120-r1" x="1159" y="337.2" textLength="12.2" clip-path="url(#terminal-2553881120-line-13)">█</text><text class="terminal-2553881120-r2" x="1464" y="337.2" textLength="12.2" clip-path="url(#terminal-2553881120-line-13)">
</text><text class="terminal-2553881120-r1" x="0" y="361.6" textLength="12.2" clip-path="url(#terminal-2553881120-line-14)">█</text><text class="terminal-2553881120-r1" x="1159" y="361.6" textLength="12.2" clip-path="url(#terminal-2553881120-line-14)">█</text><text class="terminal-2553881120-r2" x="1464" y="361.6" textLength="12.2" clip-path="url(#terminal-2553881120-line-14)">
</text><text class="terminal-2553881120-r1" x="0" y="386" textLength="12.2" clip-path="url(#terminal-2553881120-line-15)">█</text><text class="terminal-2553881120-r1" x="1159" y="386" textLength="12.2" clip-path="url(#terminal-2553881120-line-15)">█</text><text class="terminal-2553881120-r2" x="1464" y="386" textLength="12.2" clip-path="url(#terminal-2553881120-line-15)">
</text><text class="terminal-2553881120-r1" x="0" y="410.4" textLength="12.2" clip-path="url(#terminal-2553881120-line-16)">█</text><text class="terminal-2553881120-r1" x="1159" y="410.4" textLength="12.2" clip-path="url(#terminal-2553881120-line-16)">█</text><text class="terminal-2553881120-r2" x="1464" y="410.4" textLength="12.2" clip-path="url(#terminal-2553881120-line-16)">
</text><text class="terminal-2553881120-r1" x="0" y="434.8" textLength="12.2" clip-path="url(#terminal-2553881120-line-17)">█</text><text class="terminal-2553881120-r1" x="1159" y="434.8" textLength="12.2" clip-path="url(#terminal-2553881120-line-17)">█</text><text class="terminal-2553881120-r2" x="1464" y="434.8" textLength="12.2" clip-path="url(#terminal-2553881120-line-17)">
</text><text class="terminal-2553881120-r1" x="0" y="459.2" textLength="12.2" clip-path="url(#terminal-2553881120-line-18)">█</text><text class="terminal-2553881120-r1" x="1159" y="459.2" textLength="12.2" clip-path="url(#terminal-2553881120-line-18)">█</text><text class="terminal-2553881120-r2" x="1464" y="459.2" textLength="12.2" clip-path="url(#terminal-2553881120-line-18)">
</text><text class="terminal-2553881120-r1" x="0" y="483.6" textLength="12.2" clip-path="url(#terminal-2553881120-line-19)">█</text><text class="terminal-2553881120-r1" x="1159" y="483.6" textLength="12.2" clip-path="url(#terminal-2553881120-line-19)">█</text><text class="terminal-2553881120-r2" x="1464" y="483.6" textLength="12.2" clip-path="url(#terminal-2553881120-line-19)">
</text><text class="terminal-2553881120-r1" x="0" y="508" textLength="12.2" clip-path="url(#terminal-2553881120-line-20)">█</text><text class="terminal-2553881120-r1" x="1159" y="508" textLength="12.2" clip-path="url(#terminal-2553881120-line-20)">█</text><text class="terminal-2553881120-r2" x="1464" y="508" textLength="12.2" clip-path="url(#terminal-2553881120-line-20)">
</text><text class="terminal-2553881120-r1" x="0" y="532.4" textLength="12.2" clip-path="url(#terminal-2553881120-line-21)">█</text><text class="terminal-2553881120-r1" x="1159" y="532.4" textLength="12.2" clip-path="url(#terminal-2553881120-line-21)">█</text><text class="terminal-2553881120-r2" x="1464" y="532.4" textLength="12.2" clip-path="url(#terminal-2553881120-line-21)">
</text><text class="terminal-2553881120-r1" x="0" y="556.8" textLength="12.2" clip-path="url(#terminal-2553881120-line-22)">█</text><text class="terminal-2553881120-r1" x="1159" y="556.8" textLength="12.2" clip-path="url(#terminal-2553881120-line-22)">█</text><text class="terminal-2553881120-r2" x="1464" y="556.8" textLength="12.2" clip-path="url(#terminal-2553881120-line-22)">
</text><text class="terminal-2553881120-r1" x="0" y="581.2" textLength="12.2" clip-path="url(#terminal-2553881120-line-23)">█</text><text class="terminal-2553881120-r1" x="1159" y="581.2" textLength="12.2" clip-path="url(#terminal-2553881120-line-23)">█</text><text class="terminal-2553881120-r2" x="1464" y="581.2" textLength="12.2" clip-path="url(#terminal-2553881120-line-23)">
</text><text class="terminal-2553881120-r1" x="0" y="605.6" textLength="12.2" clip-path="url(#terminal-2553881120-line-24)">█</text><text class="terminal-2553881120-r1" x="1159" y="605.6" textLength="12.2" clip-path="url(#terminal-2553881120-line-24)">█</text><text class="terminal-2553881120-r2" x="1464" y="605.6" textLength="12.2" clip-path="url(#terminal-2553881120-line-24)">
</text><text class="terminal-2553881120-r1" x="0" y="630" textLength="12.2" clip-path="url(#terminal-2553881120-line-25)">█</text><text class="terminal-2553881120-r1" x="1159" y="630" textLength="12.2" clip-path="url(#terminal-2553881120-line-25)">█</text><text class="terminal-2553881120-r2" x="1464" y="630" textLength="12.2" clip-path="url(#terminal-2553881120-line-25)">
</text><text class="terminal-2553881120-r1" x="0" y="654.4" textLength="12.2" clip-path="url(#terminal-2553881120-line-26)">█</text><text class="terminal-2553881120-r1" x="1159" y="654.4" textLength="12.2" clip-path="url(#terminal-2553881120-line-26)">█</text><text class="terminal-2553881120-r2" x="1464" y="654.4" textLength="12.2" clip-path="url(#terminal-2553881120-line-26)">
</text><text class="terminal-2553881120-r1" x="0" y="678.8" textLength="12.2" clip-path="url(#terminal-2553881120-line-27)">█</text><text class="terminal-2553881120-r1" x="1159" y="678.8" textLength="12.2" clip-path="url(#terminal-2553881120-line-27)">█</text><text class="terminal-2553881120-r2" x="1464" y="678.8" textLength="12.2" clip-path="url(#terminal-2553881120-line-27)">
</text><text class="terminal-2553881120-r1" x="0" y="703.2" textLength="12.2" clip-path="url(#terminal-2553881120-line-28)">█</text><text class="terminal-2553881120-r1" x="1159" y="703.2" textLength="12.2" clip-path="url(#terminal-2553881120-line-28)">█</text><text class="terminal-2553881120-r2" x="1464" y="703.2" textLength="12.2" clip-path="url(#terminal-2553881120-line-28)">
</text><text class="terminal-2553881120-r1" x="0" y="727.6" textLength="12.2" clip-path="url(#terminal-2553881120-line-29)">█</text><text class="terminal-2553881120-r1" x="1159" y="727.6" textLength="12.2" clip-path="url(#terminal-2553881120-line-29)">█</text><text class="terminal-2553881120-r2" x="1464" y="727.6" textLength="12.2" clip-path="url(#terminal-2553881120-line-29)">
</text><text class="terminal-2553881120-r1" x="0" y="752" textLength="12.2" clip-path="url(#terminal-2553881120-line-30)">█</text><text class="terminal-2553881120-r1" x="1159" y="752" textLength="12.2" clip-path="url(#terminal-2553881120-line-30)">█</text><text class="terminal-2553881120-r2" x="1464" y="752" textLength="12.2" clip-path="url(#terminal-2553881120-line-30)">
</text><text class="terminal-2553881120-r1" x="0" y="776.4" textLength="12.2" clip-path="url(#terminal-2553881120-line-31)">█</text><text class="terminal-2553881120-r1" x="12.2" y="776.4" textLength="1146.8" clip-path="url(#terminal-2553881120-line-31)">▄▄▄▄▄▄▄▄▄▄▄▄▄▄▄▄▄▄▄▄▄▄▄▄▄▄▄▄▄▄▄▄▄▄▄▄▄▄▄▄▄▄▄▄▄▄▄▄▄▄▄▄▄▄▄▄▄▄▄▄▄▄▄▄▄▄▄▄▄▄▄▄▄▄▄▄▄▄▄▄▄▄▄▄▄▄▄▄▄▄▄▄▄▄</text><text class="terminal-2553881120-r1" x="1159" y="776.4" textLength="12.2" clip-path="url(#terminal-2553881120-line-31)">█</text><text class="terminal-2553881120-r2" x="1464" y="776.4" textLength="12.2" clip-path="url(#terminal-2553881120-line-31)">
</text><text class="terminal-2553881120-r2" x="1464" y="800.8" textLength="12.2" clip-path="url(#terminal-2553881120-line-32)">
</text><text class="terminal-2553881120-r2" x="1464" y="825.2" textLength="12.2" clip-path="url(#terminal-2553881120-line-33)">
</text><text class="terminal-2553881120-r2" x="1464" y="849.6" textLength="12.2" clip-path="url(#terminal-2553881120-line-34)">
</text><text class="terminal-2553881120-r2" x="1464" y="874" textLength="12.2" clip-path="url(#terminal-2553881120-line-35)">
</text><text class="terminal-2553881120-r2" x="1464" y="898.4" textLength="12.2" clip-path="url(#terminal-2553881120-line-36)">
</text><text class="terminal-2553881120-r2" x="1464" y="922.8" textLength="12.2" clip-path="url(#terminal-2553881120-line-37)">
</text><text class="terminal-2553881120-r2" x="1464" y="947.2" textLength="12.2" clip-path="url(#terminal-2553881120-line-38)">
</text>
    </g>
    </g>
</svg>
